<svg xmlns="http://www.w3.org/2000/svg" viewBox="0 0 676.24 224.5"><defs><style>.cls-1{fill:#fff;}.cls-2{fill:none;}.cls-2,.cls-3{stroke:#000;stroke-miterlimit:10;}.cls-3{fill:#29abe2;}</style></defs><g id="White"><rect class="cls-1" x="580.74" y="1" width="95" height="223"/><rect class="cls-2" x="580.74" y="1" width="95" height="223"/><rect class="cls-1" x="484.74" y="1" width="95" height="223"/><rect class="cls-2" x="484.74" y="1" width="95" height="223"/><rect class="cls-1" x="388.74" y="1" width="95" height="223"/><rect class="cls-2" x="388.74" y="1" width="95" height="223"/><rect class="cls-1" x="292.74" y="1" width="95" height="223"/><rect class="cls-2" x="292.74" y="1" width="95" height="223"/><rect class="cls-1" x="196.74" y="1" width="95" height="223"/><rect class="cls-2" x="196.74" y="1" width="95" height="223"/><rect class="cls-1" x="100.74" y="1" width="95" height="223"/><rect class="cls-2" x="100.74" y="1" width="95" height="223"/><rect class="cls-1" x="4.74" y="1" width="95" height="223"/><rect class="cls-2" x="4.74" y="1" width="95" height="223"/></g><g id="Select"><rect id="C" class="cls-3" x="0.5" y="1" width="99.24" height="222.13"/></g><g id="Black"><rect x="68.24" y="0.5" width="64" height="128"/><rect x="164.24" y="0.5" width="64" height="128"/><rect x="355.74" width="64.5" height="128.5"/><rect x="451.74" y="1" width="64.5" height="127.5"/><rect x="547.74" y="1" width="64.5" height="127.5"/></g></svg>