<svg xmlns="http://www.w3.org/2000/svg" viewBox="0 0 672 224.5"><defs><style>.cls-1{fill:#fff;}.cls-2{fill:none;}.cls-2,.cls-3{stroke:#000;stroke-miterlimit:10;}.cls-3{fill:#29abe2;}</style></defs><g id="White"><rect class="cls-1" x="576.5" y="1" width="95" height="223"/><rect class="cls-2" x="576.5" y="1" width="95" height="223"/><rect class="cls-1" x="480.5" y="1" width="95" height="223"/><rect class="cls-2" x="480.5" y="1" width="95" height="223"/><rect class="cls-1" x="384.5" y="1" width="95" height="223"/><rect class="cls-2" x="384.5" y="1" width="95" height="223"/><rect class="cls-1" x="288.5" y="1" width="95" height="223"/><rect class="cls-2" x="288.5" y="1" width="95" height="223"/><rect class="cls-1" x="192.5" y="1" width="95" height="223"/><rect class="cls-2" x="192.5" y="1" width="95" height="223"/><rect class="cls-1" x="96.5" y="1" width="95" height="223"/><rect class="cls-2" x="96.5" y="1" width="95" height="223"/><rect class="cls-1" x="0.5" y="1" width="95" height="223"/><rect class="cls-2" x="0.5" y="1" width="95" height="223"/></g><g id="Select"><rect id="G" class="cls-3" x="383.83" y="0.55" width="95.74" height="222.13"/></g><g id="Black"><rect x="64" y="0.5" width="64" height="128"/><rect x="160" y="0.5" width="64" height="128"/><rect x="351.5" width="64.5" height="128.5"/><rect x="447.5" y="1" width="64.5" height="127.5"/><rect x="543.5" y="1" width="64.5" height="127.5"/></g></svg>